<?xml version="1.0" encoding="UTF-8"?>
<svg version="1.1" xmlns="http://www.w3.org/2000/svg" width="1254" height="1254">
<path d="M0 0 C413.82 0 827.64 0 1254 0 C1254 413.82 1254 827.64 1254 1254 C840.18 1254 426.36 1254 0 1254 C0 840.18 0 426.36 0 0 Z " fill="#F6F3EC" transform="translate(0,0)"/>
<path d="M0 0 C3.43171735 1.74039745 5.85860092 4.24696348 8.46899414 7.03027344 C9.02901123 7.60914307 9.58902832 8.1880127 10.16601562 8.78442383 C14.2567643 13.06653196 18.06714028 17.53838538 21.74243164 22.18261719 C23.83935589 24.79124821 26.00650192 27.30509448 28.21655273 29.81665039 C35.43382734 38.04837779 41.89879914 46.76152806 48.30102539 55.63525391 C49.95231654 57.92068931 51.61492036 60.19737417 53.28149414 62.47167969 C76.93415906 94.83981778 98.25554689 128.86715576 119.60913086 162.77392578 C121.04046732 165.04450793 122.47491458 167.31309383 123.91040039 169.58105469 C129.43837148 178.31687651 134.93477491 187.07159908 140.40649414 195.84277344 C146.4210689 205.48035505 152.49136024 215.08072206 158.60571289 224.65527344 C160.80868693 228.10566991 162.99902917 231.56343251 165.17602539 235.03027344 C180.76315752 259.7979521 196.99834128 284.2329371 214.03149414 308.03027344 C214.85931396 309.19163818 214.85931396 309.19163818 215.70385742 310.37646484 C222.62568397 320.07890498 229.68496482 329.64499435 237.03149414 339.03027344 C237.90007954 340.14608428 238.76856676 341.26197154 239.63696289 342.37792969 C246.16391087 350.74413935 252.83272871 358.99149261 259.54614258 367.20849609 C260.88204311 368.84697239 262.21111098 370.49101391 263.53930664 372.13574219 C267.80381061 377.40322183 272.20909522 382.48573201 276.77758789 387.49121094 C279.13708927 390.14922809 281.36873529 392.88419637 283.59399414 395.65527344 C286.8282947 399.65455639 290.1842041 403.34628933 293.91430664 406.88574219 C295.76616618 408.76151873 297.47112034 410.68165375 299.1875 412.6796875 C302.85249631 416.88049523 306.70567697 420.84936284 310.65258789 424.78417969 C311.35617935 425.48872787 312.05977081 426.19327606 312.78468323 426.91917419 C314.26164062 428.3968071 315.73984156 429.873198 317.21923828 431.34838867 C319.46314499 433.58693825 321.70166118 435.83077817 323.93969727 438.07519531 C325.38534032 439.52017747 326.8312936 440.96484936 328.27758789 442.40917969 C328.93617294 443.06978897 329.594758 443.73039825 330.27330017 444.411026 C334.69905136 448.81489331 339.29415487 452.9650449 344.03149414 457.03027344 C345.14929634 458.00352623 346.26658849 458.97736558 347.38305664 459.95214844 C366.44736752 476.4674466 386.586835 491.73174859 408.03149414 505.03027344 C408.65975098 505.42021484 409.28800781 505.81015625 409.93530273 506.21191406 C414.26350967 508.88277605 418.63328792 511.47654766 423.03149414 514.03027344 C423.69133301 514.41505859 424.35117187 514.79984375 425.03100586 515.19628906 C453.8766619 531.91404656 484.36034343 543.84748459 516.03149414 554.03027344 C513.61793954 555.63930984 511.83415505 556.58993674 509.17993164 557.58105469 C508.42019043 557.86489014 507.66044922 558.14872559 506.87768555 558.44116211 C491.00565115 564.23205551 475.39192 568.76181107 458.70678711 571.57202148 C456.90932648 571.8799092 455.11636491 572.21520064 453.32885742 572.57641602 C443.13009962 574.46230338 432.9278096 574.36746806 422.58666992 574.34594727 C419.43380688 574.3428007 416.28189721 574.36626743 413.12915039 574.39160156 C400.47039175 574.43126298 388.44847528 573.48749617 376.03149414 571.03027344 C374.5593042 570.75606567 374.5593042 570.75606567 373.05737305 570.47631836 C370.74191038 570.0225724 368.45094681 569.51732778 366.15649414 568.96777344 C365.31828125 568.76716309 364.48006836 568.56655273 363.61645508 568.35986328 C344.95636256 563.65628624 326.64909785 556.73000762 309.03149414 549.03027344 C309.24128906 549.99622437 309.24128906 549.99622437 309.45532227 550.98168945 C312.00498934 562.74520565 314.53041981 574.51249694 316.92993164 586.30761719 C317.17522614 587.51183067 317.17522614 587.51183067 317.42547607 588.7403717 C318.2173342 592.63110541 319.00547097 596.522533 319.78735352 600.4152832 C323.08921477 616.75040179 326.77308195 633.00298358 330.41296387 649.26524353 C331.05696891 652.14415386 331.70000409 655.02327936 332.34277344 657.90246582 C334.99475327 669.78115951 337.65332565 681.65834873 340.3214798 693.53342056 C341.58946871 699.17735832 342.855312 704.82175881 344.11621094 710.46728516 C351.56275116 744.15460147 351.56275116 744.15460147 360.31776428 777.51812744 C361.86674308 782.97013543 363.33192366 788.44562315 364.81268311 793.91647339 C366.58844634 800.47464584 368.44171733 807.00772092 370.34399414 813.53027344 C370.64595703 814.56619629 370.94791992 815.60211914 371.2590332 816.66943359 C373.64989645 824.82465561 376.16823951 832.93370455 378.76196289 841.02636719 C379.76386784 844.15850078 380.69648332 847.30392245 381.59399414 850.46777344 C382.94644587 855.03921846 384.77202759 859.36703008 386.65356445 863.7434082 C387.95558337 866.84919853 389.15917843 869.974441 390.34008789 873.12792969 C392.8811059 879.76160661 395.72308883 886.21599055 398.71899414 892.65527344 C399.24444824 893.78481445 399.76990234 894.91435547 400.3112793 896.078125 C410.93658446 918.74244391 423.0341377 940.66240479 439.03149414 960.03027344 C439.49233398 960.59649414 439.95317383 961.16271484 440.42797852 961.74609375 C450.46904027 974.04605925 461.28931414 984.14558419 474.39086914 993.13183594 C475.26227539 993.75832031 476.13368164 994.38480469 477.03149414 995.03027344 C477.03149414 995.36027344 477.03149414 995.69027344 477.03149414 996.03027344 C393.87149414 996.03027344 310.71149414 996.03027344 225.03149414 996.03027344 C230.03149414 991.03027344 230.03149414 991.03027344 232.31274414 988.92480469 C246.54647375 975.56815349 249.6318751 956.03940935 250.35961914 937.28417969 C251.04192217 906.78811146 245.69029818 877.26446363 239.54443359 847.52099609 C238.640183 843.13015149 237.75117827 838.73620905 236.85961914 834.34277344 C235.15905745 825.97465515 233.44263317 817.60987785 231.7197113 809.24633789 C230.44447347 803.05145681 229.18175998 796.85413465 227.92602539 790.65527344 C224.65863819 774.54963273 221.28737676 758.48480574 217.60742188 742.46777344 C215.42284249 732.91062749 213.41838731 723.3251806 211.46899414 713.71777344 C209.19300955 702.50178318 206.77199856 691.33653214 204.15136719 680.19482422 C202.58550918 673.51334597 201.14213022 666.81875882 199.78149414 660.09277344 C197.28647274 647.8303877 194.4180433 635.65825611 191.56149292 623.47631836 C188.56597772 610.70040926 185.65471107 597.91054267 182.84399414 585.09277344 C180.03854265 572.31527424 177.01408517 559.61500153 173.76977539 546.94042969 C172.38018535 541.48024038 171.06428881 536.0048357 169.76586914 530.52246094 C166.86719141 518.28785666 163.8871199 506.07351685 160.89257812 493.86206055 C160.27385709 491.33696561 159.65635558 488.81157157 159.04003906 486.28588867 C154.73693429 468.5254203 154.73693429 468.5254203 149.86523438 450.91577148 C148.9942677 447.90143617 148.22455504 444.87425325 147.47680664 441.82714844 C146.11006022 436.26082989 144.54162441 430.77290562 142.90649414 425.28027344 C140.79044686 418.11599974 138.71563655 410.94241885 136.71508789 403.74511719 C136.41982208 402.68494888 136.41982208 402.68494888 136.11859131 401.60336304 C135.33597937 398.79189511 134.55358783 395.98040676 133.7802124 393.16638184 C131.78801048 385.91796566 129.66448133 378.78662786 127.01635742 371.74682617 C125.55700426 367.7214859 124.33869242 363.63038628 123.09838867 359.53320312 C121.33186521 353.73318514 119.47793643 347.96139902 117.62207031 342.18945312 C117.18339211 340.82307301 116.74623953 339.45620223 116.31054688 338.08886719 C115.6674735 336.07085651 115.01990169 334.05433783 114.37133789 332.03808594 C113.99356201 330.85875488 113.61578613 329.67942383 113.2265625 328.46435547 C111.98755429 324.90401031 110.52882744 321.48872249 109.03149414 318.03027344 C108.44559305 316.39699833 107.8818484 314.75548194 107.34790039 313.10449219 C107.05979492 312.22470703 106.77168945 311.34492188 106.47485352 310.43847656 C105.89141866 308.6364261 105.30808399 306.83434319 104.72485352 305.03222656 C102.72396487 298.9226089 100.46428815 292.97926572 98.03149414 287.03027344 C97.25616885 285.09942827 96.48414305 283.1672783 95.7119751 281.23516846 C87.21211823 259.98763722 78.34448783 238.93402495 69.03149414 218.03027344 C66.93271238 226.29591449 66.93271238 226.29591449 64.99633789 234.60058594 C61.17965963 251.64554537 56.08225553 268.31975265 51.03149414 285.03027344 C50.74129395 285.99771484 50.45109375 286.96515625 50.15209961 287.96191406 C37.87907458 328.73873988 21.57688475 368.44229051 3.89483643 407.13684082 C2.61261644 409.9489319 1.34409066 412.76716684 0.07446289 415.58496094 C-14.01987341 446.74794743 -29.07486378 477.64340271 -45.1574707 507.83227539 C-47.71326288 512.63093834 -50.22335766 517.45160205 -52.70678711 522.28808594 C-53.04094131 522.93874527 -53.37509552 523.5894046 -53.71937561 524.25978088 C-54.41052489 525.6056913 -55.1016717 526.95160298 -55.79281616 528.29751587 C-61.28462658 538.98779565 -66.85556058 549.61934116 -72.66015625 560.14428711 C-76.30322331 566.76278486 -79.80946805 573.44540119 -83.28100586 580.15527344 C-86.80274929 586.96124476 -90.42804941 593.63030225 -94.35522461 600.20996094 C-96.56924668 604.08047894 -98.53154794 608.0641807 -100.5012207 612.06201172 C-107.82575548 626.89307861 -115.57819227 641.51793406 -123.28100586 656.15527344 C-123.6811792 656.91590088 -124.08135254 657.67652832 -124.49365234 658.46020508 C-126.37857121 662.03638942 -128.2750754 665.60560118 -130.19506836 669.16308594 C-135.92498534 679.80852188 -141.18432048 690.64655853 -146.33764648 701.58154297 C-147.80095656 704.67596186 -149.2749969 707.76489761 -150.75340271 710.85211182 C-162.44433843 735.28060693 -174.22404846 759.94315294 -182.81225586 785.66699219 C-183.92388658 788.90048559 -185.18101709 792.01490322 -186.53100586 795.15527344 C-207.70974193 845.28721831 -218.72970326 906.94663403 -199.53100586 959.09277344 C-193.25927748 974.30463636 -185.23288103 983.90307023 -171.74975586 993.06152344 C-170.37303711 994.03605469 -170.37303711 994.03605469 -168.96850586 995.03027344 C-168.96850586 995.36027344 -168.96850586 995.69027344 -168.96850586 996.03027344 C-243.21850586 996.03027344 -317.46850586 996.03027344 -393.96850586 996.03027344 C-391.71745082 980.27288815 -391.71745082 980.27288815 -390.19897461 974.29589844 C-390.03795258 973.65460495 -389.87693054 973.01331146 -389.71102905 972.35258484 C-389.20007232 970.32651845 -388.67862045 968.30336082 -388.15600586 966.28027344 C-387.79164556 964.85010454 -387.42763572 963.41984632 -387.06396484 961.98950195 C-384.72341005 952.81743935 -382.32752598 943.66358289 -379.69946289 934.56933594 C-378.82987212 931.54871336 -377.97626341 928.52369102 -377.12084961 925.49902344 C-372.69308641 909.95072691 -367.97886314 894.50345362 -363.09350586 879.09277344 C-362.81087891 878.19960419 -362.52825195 877.30643494 -362.23706055 876.38619995 C-361.42386198 873.82001531 -360.60714213 871.25498408 -359.78881836 868.69042969 C-359.54849884 867.93327667 -359.30817932 867.17612366 -359.06057739 866.39602661 C-357.71321336 862.19449634 -356.25969547 858.05294778 -354.68936157 853.92964172 C-353.58916257 851.0307494 -352.55155146 848.10996235 -351.50756836 845.19042969 C-329.94621067 785.12928266 -304.38393916 726.51661139 -276.4753418 669.14111328 C-274.53481339 665.13492194 -272.6227688 661.11550612 -270.71166992 657.09521484 C-266.30678856 647.83112995 -261.79411925 638.6296788 -257.17788696 629.46914673 C-253.96820276 623.08069465 -250.86035882 616.64990359 -247.79663086 610.19042969 C-242.85624089 599.82123798 -237.77805787 589.52718462 -232.62268066 579.26345825 C-231.16331756 576.3578946 -229.70673758 573.45094886 -228.25073242 570.54370117 C-224.63891902 563.33320468 -221.0226615 556.12493958 -217.40649414 548.91662598 C-214.33047677 542.78458102 -211.25624702 536.65164574 -208.1842041 530.51760864 C-206.77318278 527.70188252 -205.35969594 524.88740456 -203.94604492 522.07299805 C-198.28863317 510.78976377 -192.78081185 499.44221671 -187.36303711 488.04199219 C-184.32432482 481.65746536 -181.15951094 475.33997986 -177.96850586 469.03027344 C-172.3755909 457.91035589 -166.92889383 446.72904342 -161.60473633 435.47802734 C-160.05685608 432.21643903 -158.50035331 428.9591336 -156.94136047 425.70285034 C-147.85391706 406.71419666 -139.02696653 387.63588703 -130.54162598 368.37054443 C-130.06457214 367.28752045 -130.06457214 367.28752045 -129.57788086 366.18261719 C-129.26596802 365.47429749 -128.95405518 364.76597778 -128.63269043 364.03619385 C-125.92240977 357.89554006 -123.11076505 351.80419964 -120.28100586 345.71777344 C-104.97339244 312.59885824 -91.28232765 278.3687205 -78.96850586 244.03027344 C-78.45223633 242.59893066 -78.45223633 242.59893066 -77.92553711 241.13867188 C-74.49400941 231.58485371 -71.17187751 221.99512262 -67.88452148 212.39086914 C-67.27549128 210.61361123 -66.6648226 208.83691392 -66.05249023 207.06079102 C-62.05415021 195.46282236 -58.29877313 183.83787549 -54.96850586 172.03027344 C-54.63641113 170.86262451 -54.30431641 169.69497559 -53.9621582 168.49194336 C-48.26141894 148.20264048 -43.62072386 127.7340874 -39.39233398 107.09356689 C-39.00371842 105.20169636 -38.60944031 103.31099129 -38.21459961 101.42041016 C-32.69733088 74.7838249 -28.28433665 46.8056704 -28.4206543 19.53759766 C-28.37350874 12.68040109 -27.09252973 7.19460729 -22.15209961 2.19042969 C-21.57588867 1.82820313 -20.99967773 1.46597656 -20.40600586 1.09277344 C-19.8272168 0.7125 -19.24842773 0.33222656 -18.65209961 -0.05957031 C-12.46913803 -3.40209943 -6.23851614 -2.46148493 0 0 Z " fill="#253E31" transform="translate(579.968505859375,90.9697265625)"/>
<path d="M0 0 C0.84433594 0.61488281 1.68867187 1.22976563 2.55859375 1.86328125 C3.26886719 2.36472656 3.97914063 2.86617187 4.7109375 3.3828125 C15.00392762 11.43376517 21.63313931 24.06402747 23.55859375 36.86328125 C24.23291901 45.72704191 24.04002525 54.64165112 23.9641695 63.52393293 C23.93889591 66.98985083 23.93679367 70.45578762 23.93206787 73.92178345 C23.91971335 80.46277689 23.88699565 87.00349788 23.84666991 93.5443722 C23.79729257 101.73395596 23.77561648 109.92358543 23.75390625 118.11328125 C23.71512594 132.69682596 23.63496939 147.27977753 23.55859375 161.86328125 C-11.09140625 161.86328125 -45.74140625 161.86328125 -81.44140625 161.86328125 C-81.64222459 131.51739846 -81.64222459 131.51739846 -81.69267559 116.43531036 C-81.72029057 108.3063328 -81.75524601 100.17761417 -81.81860352 92.04882812 C-81.86877404 85.60881124 -81.90077583 79.16899052 -81.91184872 72.72878361 C-81.91831135 69.32536053 -81.93326621 65.92249814 -81.97005653 62.51925659 C-82.18584619 40.06050908 -80.52775216 22.97314097 -64.81640625 5.61328125 C-47.23446313 -10.99574803 -19.98910199 -13.69466136 0 0 Z " fill="#253F32" transform="translate(640.44140625,925.13671875)"/>
<path d="M0 0 C23.76 0 47.52 0 72 0 C72 50.49 72 100.98 72 153 C64.92998535 145.92998535 58.54540487 138.52692248 52.41723633 130.64233398 C48.86673729 126.0791351 45.22969463 121.59470032 41.5625 117.125 C35.66002382 109.90514693 30.03767683 102.50193732 24.48828125 95.00878906 C21.98053269 91.62398671 19.46001359 88.24880519 16.9375 84.875 C16.5036499 84.29105469 16.0697998 83.70710938 15.62280273 83.10546875 C15.17880127 82.51121094 14.7347998 81.91695313 14.27734375 81.3046875 C13.80192139 80.63356934 13.32649902 79.96245117 12.83666992 79.27099609 C10.97379821 76.83887342 10.97379821 76.83887342 8.2043457 74.52978516 C1.15310334 67.87949719 -0.75409552 61.57565613 -1.03985596 51.94885254 C-1.13478287 44.83167253 -0.91289117 37.74068797 -0.6875 30.625 C-0.460625 20.51875 -0.23375 10.4125 0 0 Z " fill="#253F32" transform="translate(809,318)"/>
<path d="M0 0 C20.46 0 40.92 0 62 0 C62 21.45 62 42.9 62 65 C41.54 65 21.08 65 0 65 C0 43.55 0 22.1 0 0 Z " fill="#253F32" transform="translate(620,756)"/>
<path d="M0 0 C20.46 0 40.92 0 62 0 C62 21.45 62 42.9 62 65 C41.54 65 21.08 65 0 65 C0 43.55 0 22.1 0 0 Z " fill="#264033" transform="translate(542,756)"/>
<path d="M0 0 C21.2148534 1.92862304 36.66666776 9.43186405 50.41015625 25.859375 C61.88062524 41.30364283 62 55.48926365 62 75 C41.54 75 21.08 75 0 75 C0 50.25 0 25.5 0 0 Z " fill="#263F33" transform="translate(620,666)"/>
<path d="M0 0 C0 24.75 0 49.5 0 75 C-20.46 75 -40.92 75 -62 75 C-62 53.17238706 -60.10736614 37.33016543 -46 21 C-45.42765625 20.32066406 -44.8553125 19.64132812 -44.265625 18.94140625 C-33.22473657 6.83889393 -16.16822292 0 0 0 Z " fill="#233D30" transform="translate(604,666)"/>
<path d="M0 0 C0 24.75 0 49.5 0 75 C-20.46 75 -40.92 75 -62 75 C-62 68.73 -62 62.46 -62 56 C-61.67 56 -61.34 56 -61 56 C-61 61.94 -61 67.88 -61 74 C-41.2 74 -21.4 74 -1 74 C-1 49.91 -1 25.82 -1 1 C-2.98 1.66 -4.96 2.32 -7 3 C-9.875 2.625 -9.875 2.625 -12 2 C-12 1.67 -12 1.34 -12 1 C-7.7345163 -0.03405665 -4.62683027 0 0 0 Z " fill="#657468" transform="translate(604,666)"/>
<path d="M0 0 C3.45201639 1.47721422 5.64961936 3.43794001 8.25 6.125 C8.95640625 6.84945312 9.6628125 7.57390625 10.390625 8.3203125 C11.18726563 9.15175781 11.18726563 9.15175781 12 10 C11.67 10.66 11.34 11.32 11 12 C7.56424326 10.85474775 6.4094263 9.2734598 4.20703125 6.4921875 C2.96603618 4.89571244 2.96603618 4.89571244 1.1875 3.25 C0 2 0 2 0 0 Z " fill="#3E5348" transform="translate(890,517)"/>
<path d="M0 0 C0.99 0.33 1.98 0.66 3 1 C1.125 6.75 1.125 6.75 0 9 C-0.66 9 -1.32 9 -2 9 C-2.33 10.32 -2.66 11.64 -3 13 C-3.66 13 -4.32 13 -5 13 C-3.58192622 8.52761347 -1.88695626 4.28853694 0 0 Z " fill="#3B5247" transform="translate(307,752)"/>
<path d="M0 0 C1.46726798 3.81489674 0.43336419 6.29011622 -1 10 C-1.99 10 -2.98 10 -4 10 C-2.8905928 6.51329166 -1.73662334 3.22515763 0 0 Z " fill="#374F44" transform="translate(317,732)"/>
<path d="M0 0 C0.75 1.5625 0.75 1.5625 1 4 C-0.13084437 6.50286409 -1.52139516 8.67007722 -3 11 C-3.66 11 -4.32 11 -5 11 C-3.77472971 6.94718288 -2.30119506 3.55639236 0 0 Z " fill="#D9DCD3" transform="translate(472,716)"/>
<path d="M0 0 C1.32 0.33 2.64 0.66 4 1 C4 4.3 4 7.6 4 11 C0.88776687 6.85035583 0.47996422 4.99162787 0 0 Z " fill="#DFE3DE" transform="translate(888,639)"/>
<path d="M0 0 C1.46726798 3.81489674 0.43336419 6.29011622 -1 10 C-1.99 10 -2.98 10 -4 10 C-2.8905928 6.51329166 -1.73662334 3.22515763 0 0 Z " fill="#31493E" transform="translate(325,716)"/>
<path d="M0 0 C-9.41002278 4.59225513 -9.41002278 4.59225513 -14 4 C-9.68030697 0.34487513 -5.55645743 -1.67651733 0 0 Z " fill="#485F54" transform="translate(592,669)"/>
<path d="M0 0 C1.38609004 3.15020465 0.89180331 4.31918022 -0.25 7.6875 C-2 11 -2 11 -5 12 C-3.41037341 7.96479403 -1.71767682 3.98188718 0 0 Z " fill="#374F44" transform="translate(393,578)"/>
<path d="M0 0 C2 2 2 2 2.125 5.125 C2.08375 6.07375 2.0425 7.0225 2 8 C1.01 8 0.02 8 -1 8 C-0.67 5.36 -0.34 2.72 0 0 Z " fill="#334B3F" transform="translate(561,956)"/>
<path d="M0 0 C0.98120464 3.05263664 0.98120464 4.94736336 0 8 C-0.66 8 -1.32 8 -2 8 C-2 8.66 -2 9.32 -2 10 C-2.66 10 -3.32 10 -4 10 C-2.8905928 6.51329166 -1.73662334 3.22515763 0 0 Z " fill="#354D42" transform="translate(358,649)"/>
<path d="M0 0 C1.125 1.75 1.125 1.75 2 4 C1.125 6.25 1.125 6.25 0 8 C-0.99 8 -1.98 8 -3 8 C-1.125 2.25 -1.125 2.25 0 0 Z " fill="#435A50" transform="translate(337,691)"/>
<path d="M0 0 C0.6875 1.6875 0.6875 1.6875 1 4 C-0.3125 6.75 -0.3125 6.75 -2 9 C-2.66 9 -3.32 9 -4 9 C-2.94124926 5.59687262 -1.99097846 2.98646769 0 0 Z " fill="#D8DCD5" transform="translate(498,667)"/>
<path d="M0 0 C-0.33 1.32 -0.66 2.64 -1 4 C-1 3.01 -1 2.02 -1 1 C-1.886875 1.350625 -2.77375 1.70125 -3.6875 2.0625 C-7.06203126 3.01755602 -8.69686152 2.97151132 -12 2 C-12 1.67 -12 1.34 -12 1 C-7.9472484 0.01751476 -4.16138263 -0.08159574 0 0 Z " fill="#617469" transform="translate(604,666)"/>
<path d="M0 0 C1.46726798 3.81489674 0.43336419 6.29011622 -1 10 C-2.1875 8.375 -2.1875 8.375 -3 6 C-1.625 2.75 -1.625 2.75 0 0 Z " fill="#364E44" transform="translate(353,659)"/>
<path d="M0 0 C1.46726798 3.81489674 0.43336419 6.29011622 -1 10 C-2.1875 8.375 -2.1875 8.375 -3 6 C-1.625 2.75 -1.625 2.75 0 0 Z " fill="#334C40" transform="translate(362,641)"/>
<path d="M0 0 C-1.98 0.33 -3.96 0.66 -6 1 C-6 1.66 -6 2.32 -6 3 C-6.99 3.33 -7.98 3.66 -9 4 C-9.66 3.34 -10.32 2.68 -11 2 C-3.57142857 -1.57142857 -3.57142857 -1.57142857 0 0 Z " fill="#53695D" transform="translate(601,919)"/>
<path d="M0 0 C0.66 0 1.32 0 2 0 C2.33 2.31 2.66 4.62 3 7 C2.01 7.495 2.01 7.495 1 8 C0.67 5.36 0.34 2.72 0 0 Z " fill="#DEE1DC" transform="translate(781,762)"/>
<path d="M0 0 C0.66 0 1.32 0 2 0 C2.33 2.64 2.66 5.28 3 8 C2.34 8 1.68 8 1 8 C0.67 5.36 0.34 2.72 0 0 Z " fill="#415649" transform="translate(912,756)"/>
<path d="M0 0 C0.66 0 1.32 0 2 0 C2.33 2.64 2.66 5.28 3 8 C2.34 8 1.68 8 1 8 C0.67 5.36 0.34 2.72 0 0 Z " fill="#3F5347" transform="translate(904,720)"/>
<path d="M0 0 C0.66 0.33 1.32 0.66 2 1 C0.125 5.75 0.125 5.75 -1 8 C-1.66 8 -2.32 8 -3 8 C-1.125 2.25 -1.125 2.25 0 0 Z " fill="#E1E3DB" transform="translate(589,485)"/>
</svg>
